<?xml version="1.0" encoding="UTF-8"?>
<svg version="1.1" xmlns="http://www.w3.org/2000/svg" width="512" height="512">
<path d="M0 0 C6.13052573 3.70468329 9.9448497 8.95587425 12.5625 15.5 C12.5625 23.09 12.5625 30.68 12.5625 38.5 C46.8825 38.5 81.2025 38.5 116.5625 38.5 C116.5625 30.91 116.5625 23.32 116.5625 15.5 C121.08783784 6.44932432 121.08783784 6.44932432 124.5 3.625 C125.14839844 3.07070313 125.79679688 2.51640625 126.46484375 1.9453125 C132.96607557 -2.53412097 139.93390917 -2.17463728 147.5625 -1.5 C154.22209333 0.18085583 158.74797447 4.96378322 162.5625 10.5 C164.5625 15.5 164.5625 15.5 164.5625 38.5 C198.8825 38.5 233.2025 38.5 268.5625 38.5 C268.5625 30.91 268.5625 23.32 268.5625 15.5 C273.08783784 6.44932432 273.08783784 6.44932432 276.5 3.625 C277.14839844 3.07070313 277.79679687 2.51640625 278.46484375 1.9453125 C284.96607557 -2.53412097 291.93390917 -2.17463728 299.5625 -1.5 C306.22209333 0.18085583 310.74797447 4.96378322 314.5625 10.5 C316.28609099 14.15482473 316.80281931 16.99142165 316.7578125 21.01953125 C316.75136719 22.04111328 316.74492187 23.06269531 316.73828125 24.11523438 C316.72152344 25.17033203 316.70476562 26.22542969 316.6875 27.3125 C316.67847656 28.38693359 316.66945313 29.46136719 316.66015625 30.56835938 C316.63665306 33.21246854 316.60379575 35.85611872 316.5625 38.5 C317.72185059 38.47905273 318.88120117 38.45810547 320.07568359 38.43652344 C324.41800357 38.3635777 328.7602705 38.31800373 333.10302734 38.28027344 C334.97486509 38.26028137 336.84664138 38.23307832 338.71826172 38.19824219 C362.36551018 37.76943875 362.36551018 37.76943875 372.03125 46.796875 C377.74077353 53.14726342 380.80836394 60.11382645 380.81976891 68.7076683 C380.8262178 69.93960285 380.83266669 71.17153739 380.839311 72.44080329 C380.83636902 73.79970831 380.8332336 75.15861291 380.82992554 76.51751709 C380.83366335 77.96750063 380.83826539 79.41748215 380.84365618 80.86746049 C380.85588557 84.84797539 380.85562579 88.82840624 380.85326743 92.80893564 C380.85285925 97.10355327 380.8638986 101.39814395 380.87338257 105.69274902 C380.88999344 114.1054687 380.89549216 122.51816035 380.89660732 130.93089506 C380.8975578 137.76991564 380.90166808 144.60892698 380.90800858 151.44794464 C380.92562158 170.84065381 380.93484741 190.23334085 380.93334763 209.62605807 C380.93326772 210.67146086 380.9331878 211.71686365 380.93310547 212.79394531 C380.93302371 213.8406256 380.93294195 214.88730588 380.93285771 215.96570376 C380.93204489 232.92677024 380.95118128 249.88774791 380.9793822 266.84878871 C381.00811463 284.26704442 381.02192228 301.68525683 381.02019465 319.10353684 C381.01953085 328.8814381 381.02501869 338.65924625 381.04655075 348.43712616 C381.0647673 356.76273608 381.06910602 365.08821069 381.0555319 373.41383192 C381.04900452 377.66016595 381.04887665 381.90624044 381.0662384 386.15254974 C381.08198458 390.04381495 381.07909003 393.93461515 381.06167014 397.82586911 C381.05860361 399.22962899 381.0622196 400.63342371 381.07339029 402.03714249 C381.15312128 412.77163754 379.81605739 421.88444865 372.265625 429.96875 C365.62711777 435.93731613 358.59229669 438.79293717 349.63012695 438.64428711 C348.96417007 438.63666351 348.2982132 438.62903992 347.61207581 438.6211853 C346.17487645 438.60472606 344.73771758 438.5843524 343.30062294 438.56043816 C339.43042619 438.50350888 335.56000325 438.50449329 331.68945312 438.49414062 C326.78217654 438.47665443 321.87650156 438.44284048 316.9699707 438.3527832 C312.9876281 438.28120221 309.00816409 438.2642347 305.02525902 438.28204536 C303.51861746 438.27894798 302.01187111 438.25637568 300.50585365 438.21290398 C293.22435971 438.01123973 287.2201816 438.16194242 281.71806622 443.36443424 C279.55575533 445.65159656 277.56514804 448.07313414 275.5625 450.5 C273.26859541 452.55805063 270.88100916 454.39667117 268.375 456.1875 C267.75189941 456.63754395 267.12879883 457.08758789 266.48681641 457.55126953 C259.59354249 462.38669592 252.23747251 466.08037785 244.5625 469.5 C242.98082031 470.22316406 242.98082031 470.22316406 241.3671875 470.9609375 C213.19532452 482.84931958 179.46647849 481.78334892 151.25 470.8125 C137.89892012 465.29632464 120.77472996 457.02976774 112.34799671 444.72684002 C109.6459556 441.13060588 107.52555182 439.67528548 103.04945946 438.86058998 C98.44194953 438.53065997 93.83502705 438.61395064 89.21948242 438.67700195 C87.44158952 438.67566144 85.66369663 438.67118559 83.88581848 438.66381836 C80.06432974 438.65458467 76.24376687 438.66724257 72.42238426 438.69695473 C66.37421419 438.74362862 60.32669976 438.74012512 54.27839661 438.7297821 C43.61757086 438.71796832 32.95718675 438.74884856 22.29644775 438.78894043 C6.25857105 438.84876526 -9.77932897 438.87316703 -25.81730956 438.86069459 C-31.8234945 438.85759326 -37.82911274 438.87596077 -43.83518755 438.91168749 C-47.57995342 438.93029976 -51.32460793 438.93255843 -55.06941414 438.9307785 C-56.79874416 438.93342537 -58.52808019 438.94292429 -60.25732803 438.95998955 C-71.84973748 439.07006003 -82.00736354 438.51434915 -90.90625 430.203125 C-96.61577353 423.85273658 -99.68336394 416.88617355 -99.69476891 408.2923317 C-99.7012178 407.06039715 -99.70766669 405.82846261 -99.714311 404.55919671 C-99.71136902 403.20029169 -99.7082336 401.84138709 -99.70492554 400.48248291 C-99.70866335 399.03249937 -99.71326539 397.58251785 -99.71865618 396.13253951 C-99.73088557 392.15202461 -99.73062579 388.17159376 -99.72826743 384.19106436 C-99.72785925 379.89644673 -99.7388986 375.60185605 -99.74838257 371.30725098 C-99.76499344 362.8945313 -99.77049216 354.48183965 -99.77160732 346.06910494 C-99.7725578 339.23008436 -99.77666808 332.39107302 -99.78300858 325.55205536 C-99.80062158 306.15934619 -99.80984741 286.76665915 -99.80834763 267.37394193 C-99.80822776 265.80583774 -99.80822776 265.80583774 -99.80810547 264.20605469 C-99.80802371 263.1593744 -99.80794195 262.11269412 -99.80785771 261.03429624 C-99.80704489 244.07322976 -99.82618128 227.11225209 -99.8543822 210.15121129 C-99.88311463 192.73295558 -99.89692228 175.31474317 -99.89519465 157.89646316 C-99.89453085 148.1185619 -99.90001869 138.34075375 -99.92155075 128.56287384 C-99.9397673 120.23726392 -99.94410602 111.91178931 -99.9305319 103.58616808 C-99.92400452 99.33983405 -99.92387665 95.09375956 -99.9412384 90.84745026 C-99.95698458 86.95618505 -99.95409003 83.06538485 -99.93667014 79.17413089 C-99.93360361 77.77037101 -99.9372196 76.36657629 -99.94839029 74.96285751 C-100.02812128 64.22836246 -98.69105739 55.11555135 -91.140625 47.03125 C-83.63886136 40.28654508 -76.00021954 38.18361926 -66.1015625 38.3046875 C-64.78253433 38.30893234 -64.78253433 38.30893234 -63.43685913 38.31326294 C-60.64526406 38.32440288 -57.8539971 38.34949589 -55.0625 38.375 C-53.16276507 38.3850378 -51.26302508 38.39416225 -49.36328125 38.40234375 C-44.72122893 38.42432194 -40.07941998 38.4588089 -35.4375 38.5 C-35.45844727 37.84515625 -35.47939453 37.1903125 -35.50097656 36.515625 C-35.58480383 33.51057672 -35.63636895 30.50577536 -35.6875 27.5 C-35.73777344 25.95505859 -35.73777344 25.95505859 -35.7890625 24.37890625 C-35.88893866 16.53862748 -34.68690868 11.20807273 -29.47265625 5.2578125 C-28.82167969 4.71898437 -28.17070313 4.18015625 -27.5 3.625 C-26.85160156 3.07070313 -26.20320313 2.51640625 -25.53515625 1.9453125 C-18.47077988 -2.92213491 -7.84396301 -3.47595223 0 0 Z " fill="#FDFDFD" transform="translate(115.4375,17.5)"/>
<path d="M0 0 C0.33 -2.97 0.66 -5.94 1 -9 C27.4 -9 53.8 -9 81 -9 C81 -3.72 81 1.56 81 7 C59.22 7.33 37.44 7.66 15 8 C20.445 11.465 20.445 11.465 26 15 C27.31871094 16.28076416 28.63742187 17.56152832 29.99609375 18.88110352 C34.62253104 23.07817563 39.02867159 22.98950986 45.0625 22.90234375 C46.6103418 22.92078087 46.6103418 22.92078087 48.18945312 22.93959045 C51.46036976 22.9711882 54.72901534 22.95508076 58 22.9375 C60.22788542 22.95061664 62.45575477 22.9668603 64.68359375 22.98632812 C70.12287709 23.02706901 75.5606379 23.02505303 81 23 C81 28.28 81 33.56 81 39 C70.77 39 60.54 39 50 39 C51.340625 41.165625 52.68125 43.33125 54.0625 45.5625 C61.28496629 57.50714606 66.63476517 69.38326278 70 83 C70.2990625 84.00289063 70.598125 85.00578125 70.90625 86.0390625 C75.3617836 102.66480362 74.73307349 122.51522694 70 139 C69.81195801 139.70962891 69.62391602 140.41925781 69.43017578 141.15039062 C64.54297401 159.48614524 56.24333858 175.5117029 44 190 C43.39542969 190.74378906 42.79085937 191.48757813 42.16796875 192.25390625 C27.26877052 210.0840943 6.16713492 221.76763354 -16 228 C-17.70736328 228.48146484 -17.70736328 228.48146484 -19.44921875 228.97265625 C-50.7139907 236.23960324 -84.54860072 230.28544014 -111.75317383 213.57202148 C-118.33928146 209.31692649 -124.2172544 204.27463825 -130 199 C-130.68707031 198.38382813 -131.37414062 197.76765625 -132.08203125 197.1328125 C-147.6795007 182.41556142 -159.49352632 159.9648993 -164 139 C-164 137.68 -164 136.36 -164 135 C-172.91 135 -181.82 135 -191 135 C-191 129.72 -191 124.44 -191 119 C-183.08 119 -175.16 119 -167 119 C-167 113.72 -167 108.44 -167 103 C-174.92 103 -182.84 103 -191 103 C-191 97.72 -191 92.44 -191 87 C-182.09 87 -173.18 87 -164 87 C-163.67 84.03 -163.34 81.06 -163 78 C-162.34 76.02 -161.68 74.04 -161 72 C-175.85 71.505 -175.85 71.505 -191 71 C-191 65.72 -191 60.44 -191 55 C-189.89599854 55.04825928 -188.79199707 55.09651855 -187.65454102 55.14624023 C-183.52251348 55.30658061 -179.39388818 55.36613354 -175.2590332 55.39672852 C-173.47684209 55.42367518 -171.69483342 55.47725572 -169.91430664 55.55883789 C-167.33591939 55.6721974 -164.77198007 55.6866127 -162.19140625 55.68359375 C-161.40665421 55.73913925 -160.62190216 55.79468475 -159.81336975 55.85191345 C-157.05806376 55.91656351 -157.05806376 55.91656351 -153 54 C-150.03 49.05 -147.06 44.1 -144 39 C-159.51 39 -175.02 39 -191 39 C-191 33.72 -191 28.44 -191 23 C-188.22372192 23.02525757 -188.22372192 23.02525757 -185.39135742 23.05102539 C-179.23638282 23.09635897 -173.08247161 23.09968262 -166.92739391 23.07515812 C-163.1997965 23.06181082 -159.47375993 23.06467573 -155.74633789 23.10620117 C-152.14045761 23.14574925 -148.53702049 23.14060865 -144.9311161 23.10607719 C-143.56417496 23.10053149 -142.1970713 23.11037173 -140.83037376 23.13676643 C-131.3717798 23.30582701 -126.15763838 21.69754892 -119.21510315 15.16285706 C-118.48411911 14.44911423 -117.75313507 13.7353714 -117 13 C-104.63813805 3.68016282 -89.90631085 -2.31606048 -75 -6 C-73.99710937 -6.2990625 -72.99421875 -6.598125 -71.9609375 -6.90625 C-47.56151022 -13.44505433 -23.23941022 -7.74647007 0 0 Z " fill="#49A9CD" transform="translate(359,265)"/>
<path d="M0 0 C6.13052573 3.70468329 9.9448497 8.95587425 12.5625 15.5 C12.5625 23.09 12.5625 30.68 12.5625 38.5 C46.8825 38.5 81.2025 38.5 116.5625 38.5 C116.5625 30.91 116.5625 23.32 116.5625 15.5 C121.08783784 6.44932432 121.08783784 6.44932432 124.5 3.625 C125.14839844 3.07070313 125.79679688 2.51640625 126.46484375 1.9453125 C132.96607557 -2.53412097 139.93390917 -2.17463728 147.5625 -1.5 C154.22209333 0.18085583 158.74797447 4.96378322 162.5625 10.5 C164.5625 15.5 164.5625 15.5 164.5625 38.5 C198.8825 38.5 233.2025 38.5 268.5625 38.5 C268.5625 30.91 268.5625 23.32 268.5625 15.5 C273.08783784 6.44932432 273.08783784 6.44932432 276.5 3.625 C277.14839844 3.07070313 277.79679687 2.51640625 278.46484375 1.9453125 C284.96607557 -2.53412097 291.93390917 -2.17463728 299.5625 -1.5 C306.22209333 0.18085583 310.74797447 4.96378322 314.5625 10.5 C316.28609099 14.15482473 316.80281931 16.99142165 316.7578125 21.01953125 C316.75136719 22.04111328 316.74492187 23.06269531 316.73828125 24.11523438 C316.72152344 25.17033203 316.70476562 26.22542969 316.6875 27.3125 C316.67847656 28.38693359 316.66945313 29.46136719 316.66015625 30.56835938 C316.63665306 33.21246854 316.60379575 35.85611872 316.5625 38.5 C317.72185059 38.47905273 318.88120117 38.45810547 320.07568359 38.43652344 C324.41800357 38.3635777 328.7602705 38.31800373 333.10302734 38.28027344 C334.97486509 38.26028137 336.84664138 38.23307832 338.71826172 38.19824219 C362.36551018 37.76943875 362.36551018 37.76943875 372.03125 46.796875 C389.29700073 66.00061816 380.5625 94.87975652 380.5625 118.5 C222.1625 118.5 63.7625 118.5 -99.4375 118.5 C-99.4375 55.91477273 -99.4375 55.91477273 -91.140625 47.03125 C-83.63886136 40.28654508 -76.00021954 38.18361926 -66.1015625 38.3046875 C-64.78253433 38.30893234 -64.78253433 38.30893234 -63.43685913 38.31326294 C-60.64526406 38.32440288 -57.8539971 38.34949589 -55.0625 38.375 C-53.16276507 38.3850378 -51.26302508 38.39416225 -49.36328125 38.40234375 C-44.72122893 38.42432194 -40.07941998 38.4588089 -35.4375 38.5 C-35.45844727 37.84515625 -35.47939453 37.1903125 -35.50097656 36.515625 C-35.58480383 33.51057672 -35.63636895 30.50577536 -35.6875 27.5 C-35.73777344 25.95505859 -35.73777344 25.95505859 -35.7890625 24.37890625 C-35.88893866 16.53862748 -34.68690868 11.20807273 -29.47265625 5.2578125 C-28.82167969 4.71898437 -28.17070313 4.18015625 -27.5 3.625 C-26.85160156 3.07070313 -26.20320313 2.51640625 -25.53515625 1.9453125 C-18.47077988 -2.92213491 -7.84396301 -3.47595223 0 0 Z " fill="#474747" transform="translate(115.4375,17.5)"/>
<path d="M0 0 C158.4 0 316.8 0 480 0 C480.0825 48.63375 480.165 97.2675 480.25 147.375 C480.28641602 162.73724121 480.32283203 178.09948242 480.36035156 193.92724609 C480.37841797 212.67114258 480.37841797 212.67114258 480.3817749 221.44302368 C480.38550493 227.57597993 480.40017702 233.70879041 480.42230225 239.84170532 C480.44778989 246.91712899 480.45933766 253.99241285 480.4537798 261.06788275 C480.4513733 264.6862154 480.45515023 268.30423571 480.47686052 271.92251086 C480.49999521 275.80184122 480.49195662 279.68075842 480.48101807 283.56015015 C480.49266872 284.68241816 480.50431938 285.80468616 480.51632309 286.9609623 C480.44500782 296.37582975 478.24501345 304.46430378 471.703125 311.46875 C465.00050222 317.49496131 457.92518265 320.2596577 448.89306641 320.22705078 C448.20944031 320.22734283 447.52581421 320.22763489 446.82147217 320.22793579 C444.58136923 320.2265521 442.34160671 320.21103684 440.1015625 320.1953125 C438.54072247 320.19157894 436.97988008 320.18873359 435.41903687 320.18673706 C431.3255152 320.17912758 427.2321371 320.15950237 423.13867188 320.1373291 C418.95574892 320.11681263 414.7728026 320.10772297 410.58984375 320.09765625 C402.39316353 320.07625375 394.19659966 320.0421505 386 320 C388.32280521 316.49803009 390.68743894 313.06412568 393.1875 309.6875 C398.02342076 302.47325756 401.93633593 294.67580992 406 287 C419.86 287.33 433.72 287.66 448 288 C448 203.52 448 119.04 448 32 C310.72 32 173.44 32 32 32 C32 116.48 32 200.96 32 288 C82.82 287.67 133.64 287.34 186 287 C189.3 293.27 192.6 299.54 196 306 C199.9926113 311.43279446 199.9926113 311.43279446 204.1640625 316.7265625 C206 319 206 319 206 320 C182.44289409 320.09352144 158.88581608 320.16401753 135.32856178 320.20724869 C124.39003918 320.22785693 113.45163206 320.25594436 102.51318359 320.30175781 C92.97708252 320.34167872 83.4410651 320.36744545 73.90488279 320.37635398 C68.85746933 320.38155981 63.81029515 320.39375927 58.76295853 320.42292023 C54.00726351 320.45017231 49.25190521 320.45842524 44.49613953 320.45243073 C42.75553428 320.45352659 41.01491719 320.46142196 39.27437973 320.4768219 C27.65377553 320.57455169 17.45274686 320.0354664 8.53125 311.703125 C0.9882141 303.3134218 -0.29684116 295.00639528 -0.24050903 284.04116821 C-0.24222107 282.83023499 -0.24393311 281.61930176 -0.24569702 280.37167358 C-0.24842901 277.01167181 -0.24216556 273.65190338 -0.23214546 270.29192975 C-0.22340629 266.61257073 -0.22633507 262.9332175 -0.2277813 259.25385094 C-0.22884425 252.11295797 -0.21961313 244.97211535 -0.20677864 237.83123531 C-0.1923763 229.57067209 -0.19078901 221.31013909 -0.18920898 213.04956055 C-0.17870913 191.24136572 -0.15078689 169.43318211 -0.125 147.625 C-0.08375 98.90875 -0.0425 50.1925 0 0 Z " fill="#E1E6F5" transform="translate(16,136)"/>
<path d="M0 0 C1.13695312 0.350625 2.27390625 0.70125 3.4453125 1.0625 C25.51278403 8.71964675 43.08665743 25.79967931 53.24511719 46.60009766 C63.2888063 68.48428265 63.80874437 91.3337152 56 114 C55.61585938 115.12921875 55.23171875 116.2584375 54.8359375 117.421875 C46.83883319 138.42107406 29.81531759 154.85654998 9.80078125 164.4296875 C-11.80445984 173.76846845 -35.85684942 175.26944956 -58 167 C-68.88414561 162.67040869 -78.12373262 156.58311951 -87 149 C-87.67417969 148.42765625 -88.34835938 147.8553125 -89.04296875 147.265625 C-103.47601207 133.92249113 -113.60560617 112.18811024 -115.19287109 92.62255859 C-116.10376705 64.64977199 -108.56292551 41.46434681 -89.25 20.8125 C-65.08940097 -2.20214176 -31.67147454 -9.99977555 0 0 Z " fill="#FEFEFE" transform="translate(339,292)"/>
<path d="M0 0 C0.33 0 0.66 0 1 0 C1.06469482 0.65669678 1.12938965 1.31339355 1.19604492 1.98999023 C4.11816235 30.94779768 9.58961543 59.34947744 19.375 86.8125 C19.71370117 87.76511719 20.05240234 88.71773438 20.40136719 89.69921875 C20.92585449 91.12621094 20.92585449 91.12621094 21.4609375 92.58203125 C21.81697052 93.55083725 22.17300354 94.51964325 22.53982544 95.51780701 C23.93225401 99.05552192 23.93225401 99.05552192 25.9704895 102.35658264 C34.27062564 116.90526642 33.04423952 132.82174838 32.8102417 149.01591492 C32.76407948 152.73486444 32.762505 156.45336745 32.75683594 160.17260742 C32.71515023 170.99033007 32.60346015 181.80769179 32.5 192.625 C32.335 216.83875 32.17 241.0525 32 266 C82.82 265.67 133.64 265.34 186 265 C189.3 271.27 192.6 277.54 196 284 C199.9926113 289.43279446 199.9926113 289.43279446 204.1640625 294.7265625 C206 297 206 297 206 298 C182.44289409 298.09352144 158.88581608 298.16401753 135.32856178 298.20724869 C124.39003918 298.22785693 113.45163206 298.25594436 102.51318359 298.30175781 C92.97708252 298.34167872 83.4410651 298.36744545 73.90488279 298.37635398 C68.85746933 298.38155981 63.81029515 298.39375927 58.76295853 298.42292023 C54.00726351 298.45017231 49.25190521 298.45842524 44.49613953 298.45243073 C42.75553428 298.45352659 41.01491719 298.46142196 39.27437973 298.4768219 C27.65377553 298.57455169 17.45274686 298.0354664 8.53125 289.703125 C1.23490573 281.58780331 -0.29956678 273.5069694 -0.24050903 262.87637329 C-0.24307231 261.19034345 -0.24307231 261.19034345 -0.24568737 259.47025239 C-0.24898272 255.70227147 -0.2379776 251.93446844 -0.22705078 248.16650391 C-0.22648668 245.46614175 -0.22671514 242.76579051 -0.22793579 240.06542969 C-0.22898371 234.25091331 -0.22271686 228.43644187 -0.21146011 222.6219368 C-0.19519543 214.2151796 -0.18999612 205.80844411 -0.18748413 197.40167288 C-0.18310855 183.76174747 -0.16980315 170.12184601 -0.15087891 156.48193359 C-0.13251657 143.23323689 -0.11836179 129.9845467 -0.10986328 116.73583984 C-0.10933783 115.9189794 -0.10881239 115.10211895 -0.10827102 114.26050515 C-0.10566091 110.16249348 -0.1031335 106.06448176 -0.10064721 101.96647 C-0.07991897 67.97762931 -0.04469716 33.98881759 0 0 Z " fill="#C8CDED" transform="translate(16,158)"/>
<path d="M0 0 C5.93772566 3.588174 10.32132519 8.97687139 12.5625 15.5 C12.82992554 18.05952454 12.82992554 18.05952454 12.85302734 20.8059082 C12.86578705 21.84080887 12.87854675 22.87570953 12.89169312 23.94197083 C12.89391876 25.05037827 12.89614441 26.15878571 12.8984375 27.30078125 C12.9050943 28.4511235 12.9117511 29.60146576 12.91860962 30.78666687 C12.92872531 33.21835738 12.93342697 35.65007558 12.93310547 38.08178711 C12.93747199 41.78871811 12.973787 45.49445192 13.01171875 49.20117188 C13.01758853 51.56770428 13.02155684 53.93424232 13.0234375 56.30078125 C13.03780853 57.403116 13.05217957 58.50545074 13.06698608 59.64118958 C13.01825357 67.91227735 11.37415335 74.22447031 5.375 80.3125 C0.19307415 85.14161388 -5.53786459 86.5958001 -12.5 86.9375 C-20.13101325 86.63084414 -24.66401683 83.61609806 -29.8125 78.125 C-35.81787683 71.35399744 -35.7556463 64.46449994 -35.7734375 55.8203125 C-35.7800943 54.69358124 -35.7867511 53.56684998 -35.79360962 52.40597534 C-35.80371483 50.02733996 -35.8084273 47.64867635 -35.80810547 45.27001953 C-35.81247664 41.64437843 -35.84881545 38.01995706 -35.88671875 34.39453125 C-35.89258783 32.07812914 -35.89655661 29.76172128 -35.8984375 27.4453125 C-35.91280853 26.36798859 -35.92717957 25.29066467 -35.94198608 24.18069458 C-35.89577327 16.51186338 -34.66445775 11.18245278 -29.47265625 5.2578125 C-28.82167969 4.71898437 -28.17070312 4.18015625 -27.5 3.625 C-26.85160156 3.07070313 -26.20320313 2.51640625 -25.53515625 1.9453125 C-18.47077988 -2.92213491 -7.84396301 -3.47595223 0 0 Z " fill="#49A8CC" transform="translate(419.4375,17.5)"/>
<path d="M0 0 C5.93772566 3.588174 10.32132519 8.97687139 12.5625 15.5 C12.82992554 18.05952454 12.82992554 18.05952454 12.85302734 20.8059082 C12.86578705 21.84080887 12.87854675 22.87570953 12.89169312 23.94197083 C12.89391876 25.05037827 12.89614441 26.15878571 12.8984375 27.30078125 C12.9050943 28.4511235 12.9117511 29.60146576 12.91860962 30.78666687 C12.92872531 33.21835738 12.93342697 35.65007558 12.93310547 38.08178711 C12.93747199 41.78871811 12.973787 45.49445192 13.01171875 49.20117188 C13.01758853 51.56770428 13.02155684 53.93424232 13.0234375 56.30078125 C13.03780853 57.403116 13.05217957 58.50545074 13.06698608 59.64118958 C13.01825357 67.91227735 11.37415335 74.22447031 5.375 80.3125 C0.19307415 85.14161388 -5.53786459 86.5958001 -12.5 86.9375 C-20.13101325 86.63084414 -24.66401683 83.61609806 -29.8125 78.125 C-35.81787683 71.35399744 -35.7556463 64.46449994 -35.7734375 55.8203125 C-35.7800943 54.69358124 -35.7867511 53.56684998 -35.79360962 52.40597534 C-35.80371483 50.02733996 -35.8084273 47.64867635 -35.80810547 45.27001953 C-35.81247664 41.64437843 -35.84881545 38.01995706 -35.88671875 34.39453125 C-35.89258783 32.07812914 -35.89655661 29.76172128 -35.8984375 27.4453125 C-35.91280853 26.36798859 -35.92717957 25.29066467 -35.94198608 24.18069458 C-35.89577327 16.51186338 -34.66445775 11.18245278 -29.47265625 5.2578125 C-28.82167969 4.71898437 -28.17070312 4.18015625 -27.5 3.625 C-26.85160156 3.07070313 -26.20320312 2.51640625 -25.53515625 1.9453125 C-18.47077988 -2.92213491 -7.84396301 -3.47595223 0 0 Z " fill="#49A8CC" transform="translate(267.4375,17.5)"/>
<path d="M0 0 C5.93772566 3.588174 10.32132519 8.97687139 12.5625 15.5 C12.82992554 18.05952454 12.82992554 18.05952454 12.85302734 20.8059082 C12.86578705 21.84080887 12.87854675 22.87570953 12.89169312 23.94197083 C12.89391876 25.05037827 12.89614441 26.15878571 12.8984375 27.30078125 C12.9050943 28.4511235 12.9117511 29.60146576 12.91860962 30.78666687 C12.92872531 33.21835738 12.93342697 35.65007558 12.93310547 38.08178711 C12.93747199 41.78871811 12.973787 45.49445192 13.01171875 49.20117188 C13.01758853 51.56770428 13.02155684 53.93424232 13.0234375 56.30078125 C13.03780853 57.403116 13.05217957 58.50545074 13.06698608 59.64118958 C13.01825357 67.91227735 11.37415335 74.22447031 5.375 80.3125 C0.19307415 85.14161388 -5.53786459 86.5958001 -12.5 86.9375 C-20.13101325 86.63084414 -24.66401683 83.61609806 -29.8125 78.125 C-35.81787683 71.35399744 -35.7556463 64.46449994 -35.7734375 55.8203125 C-35.7800943 54.69358124 -35.7867511 53.56684998 -35.79360962 52.40597534 C-35.80371483 50.02733996 -35.8084273 47.64867635 -35.80810547 45.27001953 C-35.81247664 41.64437843 -35.84881545 38.01995706 -35.88671875 34.39453125 C-35.89258783 32.07812914 -35.89655661 29.76172128 -35.8984375 27.4453125 C-35.91280853 26.36798859 -35.92717957 25.29066467 -35.94198608 24.18069458 C-35.89577327 16.51186338 -34.66445775 11.18245278 -29.47265625 5.2578125 C-28.82167969 4.71898437 -28.17070313 4.18015625 -27.5 3.625 C-26.85160156 3.07070313 -26.20320313 2.51640625 -25.53515625 1.9453125 C-18.47077988 -2.92213491 -7.84396301 -3.47595223 0 0 Z " fill="#49A8CC" transform="translate(115.4375,17.5)"/>
<path d="M0 0 C5.28 0 10.56 0 16 0 C16 18.48 16 36.96 16 56 C34.48 56 52.96 56 72 56 C72 61.28 72 66.56 72 72 C63.33337733 72.06778403 54.66693079 72.12282068 46.000103 72.15543652 C41.97571716 72.17109069 37.95152212 72.1923242 33.92724609 72.22631836 C30.04337947 72.25892103 26.15969634 72.27685488 22.27570343 72.28463173 C20.79412192 72.29017364 19.31255042 72.30099572 17.83104706 72.31719017 C15.75530822 72.33897729 13.68032702 72.34196651 11.60449219 72.34057617 C10.42312683 72.34723801 9.24176147 72.35389984 8.02459717 72.36076355 C4.69673519 71.96382762 3.33892249 71.36230826 1 69 C-0.11817376 65.64547871 -0.1202587 63.13581736 -0.11352539 59.60083008 C-0.11367142 58.95665634 -0.11381744 58.3124826 -0.1139679 57.64878845 C-0.11327195 55.52233498 -0.10549448 53.3959694 -0.09765625 51.26953125 C-0.09579094 49.79408313 -0.09436757 48.31863439 -0.09336853 46.84318542 C-0.08955226 42.96174405 -0.07972956 39.08034015 -0.06866455 35.19891357 C-0.05843131 31.23743192 -0.05386681 27.27594419 -0.04882812 23.31445312 C-0.0381065 15.54294969 -0.0205169 7.77148488 0 0 Z " fill="#474747" transform="translate(304,312)"/>
<path d="M0 0 C7.02921074 0.31240937 11.50206555 1.46851222 16.62890625 6.64453125 C21.05023833 11.53463107 23.25329756 15.66918774 23.24291992 22.40112305 C23.24599655 23.45538986 23.24907318 24.50965668 23.25224304 25.59587097 C23.24505753 26.72310074 23.23787201 27.85033051 23.23046875 29.01171875 C23.22978142 30.75857719 23.22978142 30.75857719 23.2290802 32.54072571 C23.22606328 34.99761985 23.21819378 37.45451217 23.20581055 39.91137695 C23.18751782 43.68382492 23.18530119 47.45602787 23.18554688 51.22851562 C23.18063288 53.61458547 23.17480508 56.00065364 23.16796875 58.38671875 C23.16685593 59.52002121 23.1657431 60.65332367 23.16459656 61.82096863 C23.15821671 62.86577896 23.15183685 63.91058929 23.14526367 64.98706055 C23.13954597 66.37008614 23.13954597 66.37008614 23.13371277 67.78105164 C23 70 23 70 22 72 C14.19376653 71.72120595 9.89878864 68.92839969 4.45703125 63.4453125 C0.40767745 58.86158649 -1.25246339 54.76251004 -1.24291992 48.69067383 C-1.24599655 47.65642776 -1.24907318 46.6221817 -1.25224304 45.55659485 C-1.24505753 44.45123886 -1.23787201 43.34588287 -1.23046875 42.20703125 C-1.23001053 41.064655 -1.22955231 39.92227875 -1.2290802 38.74528503 C-1.22606354 36.33546914 -1.21819482 33.9256551 -1.20581055 31.51586914 C-1.18751655 27.81584823 -1.1853012 24.11607711 -1.18554688 20.41601562 C-1.18063291 18.07551866 -1.17480513 15.73502339 -1.16796875 13.39453125 C-1.16685593 12.28310257 -1.1657431 11.17167389 -1.16459656 10.02656555 C-1.15821671 9.00177597 -1.15183685 7.97698639 -1.14526367 6.92114258 C-1.14145187 6.01689041 -1.13764008 5.11263824 -1.13371277 4.1809845 C-1 2 -1 2 0 0 Z " fill="#5DD2F1" transform="translate(409,16)"/>
<path d="M0 0 C7.02921074 0.31240937 11.50206555 1.46851222 16.62890625 6.64453125 C21.05023833 11.53463107 23.25329756 15.66918774 23.24291992 22.40112305 C23.24599655 23.45538986 23.24907318 24.50965668 23.25224304 25.59587097 C23.24505753 26.72310074 23.23787201 27.85033051 23.23046875 29.01171875 C23.22978142 30.75857719 23.22978142 30.75857719 23.2290802 32.54072571 C23.22606328 34.99761985 23.21819378 37.45451217 23.20581055 39.91137695 C23.18751782 43.68382492 23.18530119 47.45602787 23.18554688 51.22851562 C23.18063288 53.61458547 23.17480508 56.00065364 23.16796875 58.38671875 C23.16685593 59.52002121 23.1657431 60.65332367 23.16459656 61.82096863 C23.15821671 62.86577896 23.15183685 63.91058929 23.14526367 64.98706055 C23.13954597 66.37008614 23.13954597 66.37008614 23.13371277 67.78105164 C23 70 23 70 22 72 C14.19376653 71.72120595 9.89878864 68.92839969 4.45703125 63.4453125 C0.40767745 58.86158649 -1.25246339 54.76251004 -1.24291992 48.69067383 C-1.24599655 47.65642776 -1.24907318 46.6221817 -1.25224304 45.55659485 C-1.24505753 44.45123886 -1.23787201 43.34588287 -1.23046875 42.20703125 C-1.23001053 41.064655 -1.22955231 39.92227875 -1.2290802 38.74528503 C-1.22606354 36.33546914 -1.21819482 33.9256551 -1.20581055 31.51586914 C-1.18751655 27.81584823 -1.1853012 24.11607711 -1.18554688 20.41601562 C-1.18063291 18.07551866 -1.17480513 15.73502339 -1.16796875 13.39453125 C-1.16685593 12.28310257 -1.1657431 11.17167389 -1.16459656 10.02656555 C-1.15821671 9.00177597 -1.15183685 7.97698639 -1.14526367 6.92114258 C-1.14145187 6.01689041 -1.13764008 5.11263824 -1.13371277 4.1809845 C-1 2 -1 2 0 0 Z " fill="#5DD2F1" transform="translate(257,16)"/>
<path d="M0 0 C7.02921074 0.31240937 11.50206555 1.46851222 16.62890625 6.64453125 C21.05023833 11.53463107 23.25329756 15.66918774 23.24291992 22.40112305 C23.24599655 23.45538986 23.24907318 24.50965668 23.25224304 25.59587097 C23.24505753 26.72310074 23.23787201 27.85033051 23.23046875 29.01171875 C23.22978142 30.75857719 23.22978142 30.75857719 23.2290802 32.54072571 C23.22606328 34.99761985 23.21819378 37.45451217 23.20581055 39.91137695 C23.18751782 43.68382492 23.18530119 47.45602787 23.18554688 51.22851562 C23.18063288 53.61458547 23.17480508 56.00065364 23.16796875 58.38671875 C23.16685593 59.52002121 23.1657431 60.65332367 23.16459656 61.82096863 C23.15821671 62.86577896 23.15183685 63.91058929 23.14526367 64.98706055 C23.13954597 66.37008614 23.13954597 66.37008614 23.13371277 67.78105164 C23 70 23 70 22 72 C14.19376653 71.72120595 9.89878864 68.92839969 4.45703125 63.4453125 C0.40767745 58.86158649 -1.25246339 54.76251004 -1.24291992 48.69067383 C-1.24599655 47.65642776 -1.24907318 46.6221817 -1.25224304 45.55659485 C-1.24505753 44.45123886 -1.23787201 43.34588287 -1.23046875 42.20703125 C-1.23001053 41.064655 -1.22955231 39.92227875 -1.2290802 38.74528503 C-1.22606354 36.33546914 -1.21819482 33.9256551 -1.20581055 31.51586914 C-1.18751655 27.81584823 -1.1853012 24.11607711 -1.18554688 20.41601562 C-1.18063291 18.07551866 -1.17480513 15.73502339 -1.16796875 13.39453125 C-1.16685593 12.28310257 -1.1657431 11.17167389 -1.16459656 10.02656555 C-1.15821671 9.00177597 -1.15183685 7.97698639 -1.14526367 6.92114258 C-1.14145187 6.01689041 -1.13764008 5.11263824 -1.13371277 4.1809845 C-1 2 -1 2 0 0 Z " fill="#5DD2F1" transform="translate(105,16)"/>
<path d="M0 0 C26.4 0 52.8 0 80 0 C80 5.28 80 10.56 80 16 C53.6 16 27.2 16 0 16 C0 10.72 0 5.44 0 0 Z " fill="#49A9CD" transform="translate(72,384)"/>
<path d="M0 0 C26.4 0 52.8 0 80 0 C80 5.28 80 10.56 80 16 C53.6 16 27.2 16 0 16 C0 10.72 0 5.44 0 0 Z " fill="#5DD2F1" transform="translate(72,352)"/>
<path d="M0 0 C26.4 0 52.8 0 80 0 C80 5.28 80 10.56 80 16 C53.6 16 27.2 16 0 16 C0 10.72 0 5.44 0 0 Z " fill="#5DD2F1" transform="translate(72,320)"/>
<path d="M0 0 C26.4 0 52.8 0 80 0 C80 5.28 80 10.56 80 16 C53.6 16 27.2 16 0 16 C0 10.72 0 5.44 0 0 Z " fill="#5ED3F2" transform="translate(72,288)"/>
<path d="M0 0 C26.4 0 52.8 0 80 0 C80 5.28 80 10.56 80 16 C53.6 16 27.2 16 0 16 C0 10.72 0 5.44 0 0 Z " fill="#5ED3F2" transform="translate(168,256)"/>
<path d="M0 0 C26.4 0 52.8 0 80 0 C80 5.28 80 10.56 80 16 C53.6 16 27.2 16 0 16 C0 10.72 0 5.44 0 0 Z " fill="#5ED3F2" transform="translate(72,256)"/>
<path d="M0 0 C26.4 0 52.8 0 80 0 C80 5.28 80 10.56 80 16 C53.6 16 27.2 16 0 16 C0 10.72 0 5.44 0 0 Z " fill="#5ED3F2" transform="translate(360,224)"/>
<path d="M0 0 C26.4 0 52.8 0 80 0 C80 5.28 80 10.56 80 16 C53.6 16 27.2 16 0 16 C0 10.72 0 5.44 0 0 Z " fill="#5ED3F2" transform="translate(264,224)"/>
<path d="M0 0 C26.4 0 52.8 0 80 0 C80 5.28 80 10.56 80 16 C53.6 16 27.2 16 0 16 C0 10.72 0 5.44 0 0 Z " fill="#5ED3F2" transform="translate(168,224)"/>
<path d="M0 0 C26.4 0 52.8 0 80 0 C80 5.28 80 10.56 80 16 C53.6 16 27.2 16 0 16 C0 10.72 0 5.44 0 0 Z " fill="#5ED3F2" transform="translate(72,224)"/>
<path d="M0 0 C26.4 0 52.8 0 80 0 C80 5.28 80 10.56 80 16 C53.6 16 27.2 16 0 16 C0 10.72 0 5.44 0 0 Z " fill="#5ED3F2" transform="translate(360,192)"/>
<path d="M0 0 C26.4 0 52.8 0 80 0 C80 5.28 80 10.56 80 16 C53.6 16 27.2 16 0 16 C0 10.72 0 5.44 0 0 Z " fill="#5ED3F2" transform="translate(264,192)"/>
<path d="M0 0 C26.4 0 52.8 0 80 0 C80 5.28 80 10.56 80 16 C53.6 16 27.2 16 0 16 C0 10.72 0 5.44 0 0 Z " fill="#5ED3F2" transform="translate(168,192)"/>
<path d="M0 0 C26.4 0 52.8 0 80 0 C80 5.28 80 10.56 80 16 C53.6 16 27.2 16 0 16 C0 10.72 0 5.44 0 0 Z " fill="#5ED3F2" transform="translate(72,192)"/>
<path d="M0 0 C26.4 0 52.8 0 80 0 C80 5.28 80 10.56 80 16 C71.3417747 16.29026082 62.68412207 16.54889217 54.02344894 16.75383663 C50.00076739 16.8502526 45.97939285 16.95982261 41.95800781 17.10083008 C38.06800377 17.2367238 34.17852754 17.33626665 30.28690338 17.41195869 C28.81160494 17.44678916 27.33654052 17.49412816 25.86208344 17.55491447 C16.90325724 17.91453185 10.03369628 16.84817801 2.06085205 12.49147034 C0 10 0 10 0 0 Z " fill="#5DD2F1" transform="translate(360,256)"/>
<path d="M0 0 C20.46 0 40.92 0 62 0 C60.02 2.31 58.04 4.62 56 7 C55.51337891 7.94601074 55.02675781 8.89202148 54.52539062 9.86669922 C52.70402281 13.27624261 51.28303785 14.89286784 48 17 C40.00215917 18.59144061 31.57636196 17.60678874 23.5 17.125 C21.22415648 17.02655714 18.94810707 16.93275735 16.671875 16.84375 C11.11076196 16.61618223 5.5562219 16.32523298 0 16 C0 10.72 0 5.44 0 0 Z " fill="#5ED2F1" transform="translate(168,288)"/>
<path d="M0 0 C15.18 0 30.36 0 46 0 C46 5.28 46 10.56 46 16 C41.58376894 16.37486613 37.18868077 16.7153679 32.76757812 16.9765625 C31.26883677 17.07467132 29.77117688 17.19122756 28.27539062 17.32714844 C15.87565048 18.43485856 15.87565048 18.43485856 11.39453125 15.00683594 C9.34876804 12.43599351 7.71490012 9.79982721 6 7 C4.02 4.69 2.04 2.38 0 0 Z " fill="#5ED2F1" transform="translate(394,288)"/>
<path d="M0 0 C25.75604004 -2.42642387 25.75604004 -2.42642387 33.19921875 3.3046875 C36.91410208 6.80542223 40.28712877 10.66437727 43 15 C43 15.33 43 15.66 43 16 C28.81 16 14.62 16 0 16 C0 10.72 0 5.44 0 0 Z " fill="#49A9CD" transform="translate(72,352)"/>
<path d="M0 0 C12.54 0 25.08 0 38 0 C35.69 5.28 33.38 10.56 31 16 C20.77 16 10.54 16 0 16 C0 10.72 0 5.44 0 0 Z " fill="#5DD2F1" transform="translate(168,320)"/>
<path d="M0 0 C0.33 0 0.66 0 1 0 C1.33 6.6 1.66 13.2 2 20 C-6.58 20 -15.16 20 -24 20 C-24 14.72 -24 9.44 -24 4 C-16.08 4 -8.16 4 0 4 C0 2.68 0 1.36 0 0 Z " fill="#5DD2F1" transform="translate(192,380)"/>
<path d="M0 0 C8.58 0 17.16 0 26 0 C25.67 6.6 25.34 13.2 25 20 C24.67 18.68 24.34 17.36 24 16 C16.08 16 8.16 16 0 16 C0 10.72 0 5.44 0 0 Z " fill="#5DD2F1" transform="translate(168,352)"/>
<path d="M0 0 C0.99 0 1.98 0 3 0 C4.9375 2.23046875 4.9375 2.23046875 7 5.1875 C7.680625 6.15042969 8.36125 7.11335938 9.0625 8.10546875 C10.78899867 10.68477423 12.40310476 13.33850793 14 16 C9.38 16 4.76 16 0 16 C0 10.72 0 5.44 0 0 Z " fill="#49A9CD" transform="translate(72,320)"/>
<path d="M0 0 C5.61 0 11.22 0 17 0 C17 4.29 17 8.58 17 13 C13.47158278 11.23579139 10.55785952 9.36599806 7.375 7.0625 C6.41335937 6.37285156 5.45171875 5.68320312 4.4609375 4.97265625 C2 3 2 3 0 0 Z " fill="#5DD2F1" transform="translate(135,384)"/>
</svg>
